<?xml version="1.0" encoding="utf-8"?>
<!-- Generator: Adobe Illustrator 17.0.0, SVG Export Plug-In . SVG Version: 6.00 Build 0)  -->
<!DOCTYPE svg PUBLIC "-//W3C//DTD SVG 1.1//EN" "http://www.w3.org/Graphics/SVG/1.1/DTD/svg11.dtd">
<svg version="1.1" id="Layer_1" xmlns="http://www.w3.org/2000/svg" xmlns:xlink="http://www.w3.org/1999/xlink" x="0px" y="0px"
	 width="212.307px" height="49.928px" viewBox="0 0 212.307 49.928" enable-background="new 0 0 212.307 49.928"
	 xml:space="preserve">
<g>
	<g>
		<path fill-rule="evenodd" clip-rule="evenodd" fill="#293F86" d="M22.251,6.883C23.218,6,24.505,5.461,25.916,5.461
			c3.003,0,5.437,2.436,5.437,5.437c0,1.55-0.65,2.95-1.691,3.941c-0.418,0.397-0.905,0.706-1.378,1.033L6.062,31.247
			c4.884-7.405,9.685-14.915,14.609-22.287C21.156,8.236,21.603,7.475,22.251,6.883z"/>
		<path fill-rule="evenodd" clip-rule="evenodd" fill="#3086C8" d="M52.409,42.885c0.389,1.251,0.327,2.644-0.273,3.922
			c-1.28,2.716-4.52,3.881-7.236,2.602c-1.401-0.658-2.393-1.843-2.844-3.207c-0.182-0.547-0.256-1.12-0.349-1.687L37.264,17.86
			c4.619,7.573,9.368,15.115,13.94,22.711C51.653,41.318,52.152,42.047,52.409,42.885z"/>
		<path fill-rule="evenodd" clip-rule="evenodd" fill="#4BAFE8" d="M4.235,49.429c-1.276-0.288-2.453-1.035-3.261-2.195
			c-1.715-2.464-1.106-5.853,1.357-7.569c1.274-0.886,2.792-1.151,4.199-0.862c0.564,0.115,1.098,0.338,1.633,0.54l25.316,9.454
			c-8.867,0.222-17.772,0.572-26.637,0.743C5.972,49.558,5.094,49.624,4.235,49.429z"/>
		<g>
			<path fill-rule="evenodd" clip-rule="evenodd" d="M209.658,4.477c-0.125-0.134-0.28-0.256-0.473-0.368
				c0.384-0.054,0.673-0.19,0.866-0.403c0.192-0.214,0.289-0.484,0.289-0.812c0-0.259-0.064-0.488-0.19-0.69
				c-0.127-0.2-0.299-0.338-0.509-0.418c-0.196-0.072-0.5-0.111-0.91-0.116c-0.035-0.001-0.071-0.001-0.107-0.001h-1.857v4.366
				h0.883V4.214h0.178c0.202,0,0.349,0.015,0.445,0.049c0.092,0.034,0.182,0.094,0.265,0.181c0.043,0.047,0.108,0.131,0.193,0.248
				c0.075,0.104,0.166,0.236,0.271,0.394l0.636,0.951h1.056l-0.533-0.852C209.948,4.846,209.782,4.609,209.658,4.477z M208.73,3.508
				c-0.118,0.006-0.261,0.009-0.429,0.009h-0.651V2.409h0.687c0.16,0,0.293,0.002,0.394,0.003c0.127,0.003,0.209,0.007,0.25,0.012
				c0.145,0.025,0.253,0.08,0.333,0.172c0.076,0.09,0.119,0.208,0.119,0.355c0,0.131-0.03,0.24-0.09,0.327
				c-0.059,0.088-0.142,0.149-0.248,0.185C209.03,3.485,208.909,3.5,208.73,3.508z"/>
			<path fill-rule="evenodd" clip-rule="evenodd" d="M212.305,3.895c0-1.076-0.436-2.049-1.14-2.754
				c-0.635-0.634-1.486-1.051-2.435-1.127C208.625,0.005,208.519,0,208.411,0v0h-0.001h-0.001v0c-1.077,0-2.049,0.437-2.753,1.14
				c-0.704,0.705-1.14,1.679-1.14,2.755h-0.002l0,0v0.002h0.002c0,1.075,0.436,2.049,1.139,2.753v0.001
				c0.705,0.705,1.678,1.14,2.755,1.14v0.001l0,0h0.002V7.791c0.108,0,0.213-0.004,0.318-0.013c0.946-0.076,1.8-0.494,2.434-1.126
				h0.001c0.705-0.705,1.14-1.678,1.14-2.755h0.002V3.895l0,0H212.305z M211.766,3.897c0,0.924-0.377,1.763-0.984,2.371v0.001
				c-0.536,0.536-1.254,0.891-2.051,0.966c-0.105,0.01-0.211,0.016-0.318,0.016V7.249h-0.002l0,0v0.002
				c-0.925-0.001-1.762-0.376-2.369-0.985l-0.002,0.002c-0.607-0.608-0.983-1.445-0.983-2.371l0,0V3.895l0,0l0,0
				c0-0.924,0.376-1.763,0.985-2.371c0.608-0.606,1.445-0.982,2.369-0.983v0.001h0.001h0.001V0.541c0.108,0,0.214,0.006,0.319,0.015
				c0.797,0.077,1.515,0.433,2.051,0.97c0.607,0.606,0.983,1.445,0.984,2.37h-0.003l0,0v0.002H211.766z"/>
			<path fill-rule="evenodd" clip-rule="evenodd" d="M78.29,8.842V8.839C77.412,8.839,78.342,8.84,78.29,8.842z"/>
			<path fill-rule="evenodd" clip-rule="evenodd" d="M82.698,16.83c0,0,2.347-0.454,3.294-1.731
				c0.947-1.276,0.907-2.554,0.907-3.706c0-1.153,0.371-2.431-1.072-4.449c-1.441-2.017-5.849-1.977-5.849-1.977H77.32h-9.947
				v20.698l5.026-0.021v-7.95h4.921h0.392l4.738,7.95h5.89L82.698,16.83z M78.454,13.988c-0.064,0-0.114,0-0.164,0h-0.97H72.4V8.839
				h4.921h0.97c0.05,0,0.101,0,0.164,0c1.152,0,3.852,0.058,3.789,2.595C82.182,13.972,79.607,13.988,78.454,13.988z"/>
			<path fill-rule="evenodd" clip-rule="evenodd" d="M78.29,13.988v-0.002C78.342,13.986,77.412,13.988,78.29,13.988z"/>
			<polygon fill-rule="evenodd" clip-rule="evenodd" points="72.4,28.528 67.374,28.528 67.374,45.405 67.374,49.287 72.4,49.287 
				82.368,49.287 82.368,45.405 72.4,45.405 			"/>
			<rect x="133.251" y="28.528" fill-rule="evenodd" clip-rule="evenodd" width="5.025" height="20.76"/>
			<rect x="181.076" y="28.528" fill-rule="evenodd" clip-rule="evenodd" width="5.025" height="20.76"/>
			<polygon fill-rule="evenodd" clip-rule="evenodd" points="166.358,28.528 159.64,28.528 159.64,32.703 166.358,32.703 
				166.358,49.287 171.384,49.287 171.384,32.703 178.101,32.703 178.101,28.528 171.384,28.528 			"/>
			<polygon fill-rule="evenodd" clip-rule="evenodd" points="127.795,25.591 137.331,5.103 132.304,5.103 125.283,20.192 
				118.259,5.103 113.235,5.103 122.769,25.591 			"/>
			<path fill-rule="evenodd" clip-rule="evenodd" d="M146.504,5.103h-2.513l-9.535,20.488h5.025l2.352-5.054l4.67,0h4.67
				l2.354,5.054h5.025l-9.535-20.488H146.504z M146.504,17.175h-3.106l3.106-6.673l3.106,6.673H146.504z"/>
			<path fill-rule="evenodd" clip-rule="evenodd" d="M196.098,5.103h-2.513l-9.535,20.488h5.024l2.353-5.054l4.671,0h4.669
				l2.354,5.054h5.026L198.61,5.103H196.098z M196.098,17.175h-3.107l3.107-6.673l3.105,6.673H196.098z"/>
			<path fill-rule="evenodd" clip-rule="evenodd" d="M150.543,36.287c-1.171-0.423-2.98-1.081-2.98-2.573
				c0-0.451,0.212-0.838,0.56-1.121c0.697-0.567,1.856-0.679,2.715-0.679c1.665,0,3.6,0.421,5.161,0.965l0.387,0.136l0.628-3.941
				l-0.286-0.087c-2.238-0.676-4.66-0.883-6.989-0.883c-2.275,0-4.764,0.481-6.393,2.197c-0.975,1.03-1.533,2.429-1.533,3.847
				c0,0.836,0.16,1.636,0.569,2.372c1.003,1.797,3.411,2.834,5.225,3.589c0.298,0.123,0.598,0.241,0.9,0.355
				c1.066,0.409,2.927,1.012,3.519,2.051c0.159,0.278,0.228,0.576,0.228,0.894c0,0.561-0.373,1.047-0.807,1.365
				c-0.756,0.553-1.794,0.727-2.709,0.727c-1.819,0-4.136-0.53-5.839-1.193l-0.399-0.156l-0.623,4.245l0.277,0.087
				c2.075,0.657,4.197,1.033,6.376,1.033c2.15,0,4.523-0.317,6.432-1.37c1.395-0.772,2.505-1.933,2.93-3.498
				c0.122-0.451,0.18-0.916,0.18-1.384c0-1.235-0.289-2.384-1.041-3.38C155.606,37.998,152.696,37.06,150.543,36.287z"/>
			<path fill-rule="evenodd" clip-rule="evenodd" d="M172.541,25.591c8.664,0,10.89-5.757,10.868-10.229
				c-0.041-8.206-6.406-10.229-10.868-10.229h-0.112H161.74v20.459h10.689H172.541z M172.238,22.141h-5.388V8.58h5.388
				c0.059,0,0.124,0.001,0.19,0.002c1.673,0.027,5.501,0.487,5.58,6.78c0.079,6.412-3.897,6.761-5.58,6.779
				C172.361,22.141,172.297,22.141,172.238,22.141z"/>
			<path fill-rule="evenodd" clip-rule="evenodd" d="M95.302,28.405c-6.141,0-11.122,4.695-11.122,10.482
				c0,5.788,4.98,10.483,11.122,10.483c6.14,0,11.119-4.695,11.119-10.483C106.421,33.1,101.442,28.405,95.302,28.405z
				 M95.302,45.828c-3.189,0-5.775-3.108-5.775-6.941c0-3.833,2.586-6.94,5.775-6.94c3.187,0,5.771,3.107,5.771,6.94
				C101.073,42.72,98.489,45.828,95.302,45.828z"/>
			<path fill-rule="evenodd" clip-rule="evenodd" d="M206.372,44.667c-1.381,0.604-2.864,0.885-4.359,0.885
				c-4.03,0-7.043-2.174-7.043-6.659c0-1.435,0.348-2.833,1.163-4c1.435-2.052,3.852-2.777,6.188-2.777
				c1.437,0,2.805,0.237,4.161,0.744l0.412,0.155l0.221-4.259l-0.248-0.076c-1.632-0.502-3.152-0.722-4.854-0.722
				c-6.628,0-12.304,3.458-12.304,10.993c0,5.797,3.489,9.509,8.794,10.51c0.893,0.169,1.805,0.251,2.712,0.251
				c1.9,0,3.846-0.315,5.656-0.903l0.251-0.081l-0.334-4.244L206.372,44.667z"/>
			<path fill-rule="evenodd" clip-rule="evenodd" d="M120.576,40.998h3.794v4.257c-1.044,0.349-1.922,0.406-3.063,0.406
				c-4.495,0-6.755-2.554-6.85-6.866c-0.082-3.742,2.46-6.693,7.087-6.693c1.856,0,4.17,0.273,6.516,1.228l0.219-4.112
				c-2.345-0.696-4.3-0.87-6.679-0.87c-7.621,0-12.605,3.677-12.605,10.365c0,6.6,4.822,10.367,12.021,10.367
				c3.486,0,6.906-0.844,7.981-1.105V37.237h-8.419V40.998z"/>
			<path fill-rule="evenodd" clip-rule="evenodd" d="M90.813,17.571c0.082,1.4,0.658,3.748,2.758,5.932
				c2.101,2.183,5.931,1.935,5.931,1.935h10.299v-3.296c0,0-6.083,0.014-7.197-0.006c-1.112-0.02-4.143,0.062-5.463-1.364
				c-1.319-1.426-0.928-3.698-0.928-3.698h13.422v-3.677H96.091c0,0,0.009-0.376,0.083-0.746c0.437-2.223,2.245-4.09,4.617-4.09
				l8.927-0.001V5.194c0,0-7.793-0.042-9.793,0c-2,0.041-2.763,0.392-4.783,1.405c-2.019,1.013-3.093,2.734-3.754,4.011
				c-0.657,1.277-0.617,4.161-0.617,4.161S90.73,16.17,90.813,17.571z"/>
		</g>
	</g>
</g>
</svg>
